<?xml version="1.0" encoding="UTF-8" standalone="no"?>
<svg
   width="403"
   height="329"
   viewBox="0 0 403 329"
   fill="none"
   version="1.1"
   id="svg26"
   sodipodi:docname="Logo of DP2.svg"
   inkscape:version="1.2.2 (b0a8486541, 2022-12-01)"
   xmlns:inkscape="http://www.inkscape.org/namespaces/inkscape"
   xmlns:sodipodi="http://sodipodi.sourceforge.net/DTD/sodipodi-0.dtd"
   xmlns="http://www.w3.org/2000/svg"
   xmlns:svg="http://www.w3.org/2000/svg">
  <sodipodi:namedview
     id="namedview28"
     pagecolor="#ffffff"
     bordercolor="#000000"
     borderopacity="0.25"
     inkscape:showpageshadow="2"
     inkscape:pageopacity="0.0"
     inkscape:pagecheckerboard="0"
     inkscape:deskcolor="#d1d1d1"
     showgrid="false"
     inkscape:zoom="2.4924012"
     inkscape:cx="201.4122"
     inkscape:cy="164.5"
     inkscape:window-width="1920"
     inkscape:window-height="1008"
     inkscape:window-x="0"
     inkscape:window-y="0"
     inkscape:window-maximized="1"
     inkscape:current-layer="svg26" />
  <ellipse
     cx="201.5"
     cy="164.5"
     rx="173.11578"
     ry="164.5"
     fill="#d9d9d9"
     id="ellipse2"
     style="stroke-width:0.926896" />
  <mask
     id="mask0_5_23"
     style="mask-type:alpha"
     maskUnits="userSpaceOnUse"
     x="0"
     y="0"
     width="403"
     height="329">
    <ellipse
       cx="201.5"
       cy="164.5"
       rx="201.5"
       ry="164.5"
       fill="#D9D9D9"
       id="ellipse4" />
  </mask>
  <g
     mask="url(#mask0_5_23)"
     id="g11"
     transform="matrix(0.85913537,0,0,1,28.384223,0)">
    <path
       d="m 639.278,416.437 h 376.762 c 35.39,0 64.07,-28.687 64.07,-64.074 0,-48.952 -52.67,-79.823 -95.378,-55.905 l -29.115,16.304 c -20.804,11.65 -45.591,13.867 -68.132,6.092 L 787.198,284.263 c -34.604,-11.936 -71.82,-14.146 -107.594,-6.389 l -196.796,42.67 c -31.894,6.915 -64.996,5.921 -96.418,-2.897 L 257.132,281.373 c -35.775,-10.039 -73.638,-9.915 -109.346,0.361 L 33.0504,314.75 c -36.16316,10.406 -75.0301,5.22 -107.2002,-14.303 l -11.4297,-6.936 c -36.0775,-21.894 -81.3565,-21.825 -117.3675,0.179 l -40.136,24.525 c -12.843,7.848 -29.066,7.563 -41.626,-0.732 -25.803,-17.042 -60.201,1.463 -60.201,32.386 v 18.047 c 0,26.797 21.724,48.521 48.521,48.521 h 64.251 475.007 z"
       fill="#084c69"
       stroke="#000000"
       id="path7" />
    <path
       d="m 639.278,416.437 h 376.762 c 35.39,0 64.07,-28.687 64.07,-64.074 0,-48.952 -52.67,-79.823 -95.378,-55.905 l -29.115,16.304 c -20.804,11.65 -45.591,13.867 -68.132,6.092 L 787.198,284.263 c -34.604,-11.936 -71.82,-14.146 -107.594,-6.389 l -196.796,42.67 c -31.894,6.915 -64.996,5.921 -96.418,-2.897 L 257.132,281.373 c -35.775,-10.039 -73.638,-9.915 -109.346,0.361 L 33.0504,314.75 c -36.16316,10.406 -75.0301,5.22 -107.2002,-14.303 l -11.4297,-6.936 c -36.0775,-21.894 -81.3565,-21.825 -117.3675,0.179 l -40.136,24.525 c -12.843,7.848 -29.066,7.563 -41.626,-0.732 -25.803,-17.042 -60.201,1.463 -60.201,32.386 v 18.047 c 0,26.797 21.724,48.521 48.521,48.521 h 64.251 475.007 z"
       fill="#677b89"
       stroke="#386b91"
       id="path9" />
  </g>
  <g
     clip-path="url(#clip0_5_23)"
     id="g19"
     transform="matrix(0.85913537,0,0,1,28.384223,0)">
    <path
       d="m 336.151,245.552 c -12.097,-7.609 -44.305,-28.624 -74.304,-53.879 -19.938,-16.795 -28.418,-33.609 -43.534,-46.336 -13.691,-11.528 -26.144,-18.246 -26.144,-18.246 l -3.507,2.953 -23.692,-19.945 9.152,-7.706 c 1.543,-1.298 1.543,-3.4005 0,-4.7054 l -1.891,-1.5919 c 0.009,-0.0074 26.934,-29.5863 60.979,-21.4068 3.954,0.9581 7.48,2.5873 8.48,1.756 1.361,-1.1408 -3.822,-5.5251 -6.859,-8.0602 -43.068,-35.9763 -90.575,4.1158 -90.598,4.1345 l -1.676,-1.413 c -1.543,-1.2974 -4.041,-1.2974 -5.58,0 L 94.7853,106.628 c -1.5435,1.301 -1.5435,3.407 0,4.705 0,0 5.1649,7.377 -8.3798,8.705 -5.4526,0.54 -8.8684,1.543 -10.8047,2.867 -0.2283,0.156 -9.0374,7.489 -9.0374,7.489 -1.5435,1.298 -1.5435,3.408 0,4.705 l 31.5738,26.589 c 1.5344,1.297 4.0418,1.297 5.5848,0 0,0 8.704,-7.419 8.892,-7.613 1.566,-1.633 2.762,-4.503 3.393,-9.096 1.589,-11.408 10.338,-7.054 10.338,-7.054 1.544,1.301 4.051,1.301 5.59,0 l 9.152,-7.706 23.682,19.942 -3.507,2.956 c 0,0 7.983,10.487 21.673,22.015 15.111,12.724 35.086,19.863 55.029,36.658 29.989,25.254 54.946,52.369 63.997,62.558 3.415,3.836 3.959,3.482 8.128,-0.034 l 13.011,-10.953 13.001,-10.949 c 4.178,-3.527 4.608,-3.982 0.05,-6.86 z"
       fill="#1065ab"
       id="path13" />
    <path
       d="m 211.264,133.1 c 4.385,2.773 9.053,5.876 13.826,9.315 8.814,6.352 16.189,13.459 23.581,21.045 l 49.51,-34.597 c 18.055,3.068 37.871,-0.332 51.962,-10.162 14.086,-9.846 18.925,-23.6958 14.557,-36.2997 l -44.937,31.3977 -31.892,-5.969 -8.549,-22.2952 44.926,-31.3783 c -18.039,-3.0679 -37.861,0.3249 -51.941,10.1744 -14.091,9.8379 -18.936,23.6837 -14.567,36.2881 z"
       fill="#1065ab"
       id="path15" />
    <path
       d="m 177.241,178.025 c -4.211,-3.542 -7.983,-7.002 -11.321,-10.226 l -44.374,36.229 c -14.883,-2.949 -31.2314,0.313 -42.8398,9.802 -17.7323,14.465 -17.7277,37.929 0,52.398 17.7232,14.476 46.4568,14.476 64.1798,0 11.622,-9.488 15.618,-22.831 12.015,-34.984 l 45.685,-37.293 c -8.403,-4.988 -16.29,-9.987 -23.345,-15.926 z m -59.394,83.48 -26.3085,-5.757 -7.0463,-21.481 19.2618,-15.714 26.304,5.745 7.047,21.485 z"
       fill="#1065ab"
       id="path17" />
  </g>
  <defs
     id="defs24">
    <clipPath
       id="clip0_5_23">
      <rect
         width="292.266"
         height="238.599"
         fill="white"
         transform="translate(56.2748 45.9415)"
         id="rect21" />
    </clipPath>
  </defs>
</svg>
